<?xml version="1.0" encoding="UTF-8"?>
<svg width="55px" height="59px" viewBox="0 0 55 59" version="1.1" xmlns="http://www.w3.org/2000/svg" xmlns:xlink="http://www.w3.org/1999/xlink">
    <title>Shape</title>
    <g id="Page-1" stroke="none" stroke-width="1" fill="none" fill-rule="evenodd">
        <g id="Desktop-Copy" transform="translate(-126.000000, -1775.000000)" fill="#0067CF" fill-rule="nonzero">
            <path d="M158.199412,1806.92304 C158.199412,1806.92304 157.960515,1786.85919 157.278699,1785.14061 C156.525389,1783.24484 153.588873,1781.09275 153.588873,1781.09275 C153.733606,1781.09963 157.154891,1781.2751 158.412152,1784.44389 C159.465392,1787.09831 158.420871,1803.63555 158.199412,1806.92304 M145.30769,1799.86465 C144.983348,1801.68645 144.400928,1801.34755 143.93534,1800.33086 C143.38082,1790.4701 144.043454,1787.96534 145.283277,1785.68595 C146.523101,1783.40655 148.601679,1784.29251 148.601679,1784.29251 C147.869294,1791.79129 145.632032,1798.04802 145.30769,1799.86465 M178.894522,1820.33966 C178.617262,1817.02808 177.044378,1801.25122 176.55089,1796.5806 C176.256192,1793.77307 176.39395,1790.09507 175.283166,1787.44237 C174.580425,1785.74788 171.110315,1783.73857 169.143338,1782.39846 C167.178104,1781.0549 162.668705,1778.3764 162.314719,1777.35798 L161.96422,1776.33956 L162.075822,1776.22774 C162.39842,1775.94905 162.598954,1775.5465 162.595466,1775.08718 C162.591979,1774.7414 162.464683,1774.42831 162.260662,1774.17371 C162.374007,1774.09113 162.45422,1774.00512 162.452477,1773.91566 L162.431551,1771.92183 L162.405395,1771.92183 C162.25543,1771.38166 159.897848,1770.97223 156.989233,1771.00147 C153.988197,1771.03072 151.55912,1771.5124 151.567839,1772.07666 C151.567839,1772.10763 151.57307,1772.63404 151.578302,1773.12948 C152.985527,1773.63697 155.06585,1773.92942 157.573397,1773.74019 C159.320659,1773.61289 160.839486,1773.28259 162.049665,1772.85768 C162.081053,1773.26195 162.112441,1773.66794 162.143829,1774.07393 C160.853436,1774.48164 159.332865,1774.77237 157.660586,1774.89795 C155.350085,1775.06998 153.281969,1774.87559 151.677697,1774.42315 C151.538195,1774.65195 151.440543,1774.90655 151.444031,1775.19212 C151.449262,1775.69789 151.707341,1776.14173 152.078765,1776.4359 C152.078765,1776.4359 152.54784,1777.33562 150.260008,1778.38156 C147.972177,1779.42234 143.284912,1781.73614 143.284912,1781.73614 C143.284912,1781.73614 142.154947,1782.33653 141.593451,1785.26792 C141.119145,1787.76063 136.988144,1807.76943 136.988144,1807.76943 C136.988144,1807.76943 135.690776,1816.05955 136.069175,1819.68594 C136.452805,1823.31405 137.31423,1829.31618 142.845481,1830.96422 C148.38022,1832.61399 155.735459,1832.99967 155.735459,1832.99967 C155.735459,1832.99967 158.609199,1833.08363 160.654646,1830.57028 C162.126391,1828.40098 162.961659,1831.68159 164.572906,1831.77965 C166.456182,1831.89319 168.58533,1831.3857 170.365723,1830.78359 C170.948144,1830.58404 171.493945,1830.29675 172.038003,1830.00946 C172.604729,1829.71013 173.169712,1829.41079 173.74167,1829.11318 C175.263985,1828.30808 176.875232,1827.44621 177.944166,1826.06481 C179.20317,1824.44085 179.056693,1822.27671 178.894522,1820.33966" id="Shape" transform="translate(157.500000, 1802.000000) rotate(40.000000) translate(-157.500000, -1802.000000) "></path>
        </g>
    </g>
</svg>