<?xml version="1.0" encoding="UTF-8"?>
<svg width="34px" height="24px" viewBox="0 0 34 24" version="1.1" xmlns="http://www.w3.org/2000/svg" xmlns:xlink="http://www.w3.org/1999/xlink">
    <title>Combined Shape</title>
    <g id="Page-1" stroke="none" stroke-width="1" fill="none" fill-rule="evenodd">
        <g id="Desktop-Copy" transform="translate(-981.000000, -1675.000000)" fill="#0067CF" fill-rule="nonzero">
            <path d="M998.272977,1674.99967 C1004.5573,1675.01635 1014.69917,1675.61852 1014.99345,1679.29394 L1015,1679.45809 L1015,1680.53112 C1015,1681.29533 1014.56971,1681.9263 1013.85291,1682.45462 L1013.68248,1682.57473 L1012.52555,1695.83649 L1012.52516,1695.86298 L1012.52516,1695.86298 L1012.52337,1695.91862 C1012.5225,1695.93774 1012.52129,1695.95742 1012.51965,1695.97762 L1012.51326,1696.0398 C1012.50796,1696.08226 1012.50041,1696.12671 1012.48966,1696.17289 L1012.471,1696.24343 C1012.16928,1697.26015 1010.20479,1699 997.4129,1699 C984.884494,1699 983.29477,1697.14853 983.092726,1696.14935 L983.080644,1696.08027 L983.072426,1696.01423 L983.065709,1695.92134 L983.065709,1695.92134 L983.063484,1695.83649 L981.87547,1682.23789 C981.379417,1681.7975 981.06175,1681.29828 981.008092,1680.71284 L981,1680.53459 L981,1679.46157 C981,1675.6364 991.346876,1675.0166 997.723571,1674.99967 L998.272977,1674.99967 Z M1012.32697,1682.8699 C1009.32585,1683.76756 1003.56536,1684.63396 997.4129,1684.63396 C991.451028,1684.63396 986.579773,1683.82086 983.551108,1682.95393 L983.263789,1682.8699 L984.391366,1695.77745 C984.391366,1696.79108 989.256547,1697.42104 994.253095,1697.61088 L994.891301,1697.63272 C995.742221,1697.65864 996.591111,1697.67174 997.414627,1697.67174 C998.110162,1697.67174 998.834719,1697.66238 999.571621,1697.64383 L1000.20589,1697.62568 C1005.40405,1697.45913 1010.97363,1696.8445 1011.19434,1695.83947 L1011.20112,1695.77745 L1012.32697,1682.8699 Z M998,1676.32757 C988.577044,1676.32757 982.327882,1677.73222 982.327882,1679.4633 L982.327882,1679.4633 L982.327882,1680.53459 C982.327882,1682.26046 988.577044,1683.66685 998,1683.66685 C1007.42123,1683.66685 1013.67039,1682.26046 1013.67039,1680.53459 L1013.67039,1680.53459 L1013.67039,1679.4633 C1013.67039,1677.73222 1007.42123,1676.33104 998,1676.32757 Z M998.395706,1676.96559 C1006.15234,1676.99703 1012.37353,1677.95004 1012.37014,1679.12299 C1012.37014,1680.31408 1005.93966,1681.28119 998,1681.28119 C990.058608,1681.28119 983.624683,1680.31755 983.624683,1679.12299 C983.624683,1677.93363 990.056882,1676.96479 998,1676.96479 Z M997.998273,1678.29652 C992.767902,1678.29652 989.001828,1678.70107 986.822651,1679.12473 C989.003555,1679.54838 992.767902,1679.94946 997.998273,1679.94946 C1003.23382,1679.94946 1006.99644,1679.54491 1009.17562,1679.12473 C1006.99644,1678.6976 1003.23037,1678.29652 997.998273,1678.29652 Z" id="Combined-Shape"></path>
        </g>
    </g>
</svg>