<?xml version="1.0" encoding="UTF-8"?>
<svg width="39px" height="59px" viewBox="0 0 39 59" version="1.1" xmlns="http://www.w3.org/2000/svg" xmlns:xlink="http://www.w3.org/1999/xlink">
    <title>Group 3</title>
    <g id="Page-1" stroke="none" stroke-width="1" fill="none" fill-rule="evenodd">
        <g id="Desktop-Copy" transform="translate(-424.000000, -1608.000000)" fill="#0067CF" fill-rule="nonzero">
            <g id="Group-3" transform="translate(424.000000, 1608.000000)">
                <path d="M21.9507627,1.26616699 C21.9507627,1.15784554 21.9322987,0.90934339 21.9322987,0.885448952 C21.9322987,0.694293451 21.4737761,0.515881649 20.6936723,0.369329098 C20.4936457,0.315168372 20.2936191,0.270565422 20.0905152,0.245078022 C17.2055159,-0.0767004062 14.39745,-0.0607707811 11.5062961,0.171801746 C11.0185389,0.206846921 10.0537952,0.391630573 10.0568725,0.404374273 C9.3967847,0.544554974 9.01211813,0.710223076 9.01211813,0.885448952 C9.01211813,0.93483079 8.99519281,5.6643365 9.00134747,7.86421773 C9.47064068,8.07130285 10.7892777,9 15.3114178,9 C19.6412246,9 21.4014588,8.16369468 22,7.90563475 C21.990768,5.69141686 21.958456,3.48038489 21.9507627,1.26616699" id="Path"></path>
                <path d="M34.5270511,37.082494 C34.4024944,37.967946 33.8918116,38.612905 32.9996738,38.9252337 C32.1884978,39.2094529 31.4224737,39.0845214 30.7607659,38.5270146 C30.2687667,38.1116173 30.0585771,37.5431789 29.9449191,36.9481926 C29.3859706,33.9857542 28.3739469,31.162302 26.980468,28.465343 C26.6301521,27.7891512 26.2782793,27.1176444 25.9014951,26.4539457 C25.3752427,25.5216443 25.6975333,24.1364662 26.6223673,23.4368497 C27.5440874,22.7450415 28.9297814,22.804384 29.832818,23.5930141 C31.064373,24.6674251 32.0063336,25.9604663 32.8175095,27.3487677 C34.147153,29.6287677 34.7465824,32.0774253 34.7465824,34.683809 C34.6765193,35.4849323 34.6391522,36.2907405 34.5270511,37.082494 M38.5533486,30.4455075 C37.4261099,24.2083018 34.2405706,19.098603 29.2909961,14.9633701 C27.6203784,13.5703837 25.7426852,12.4787946 23.7653465,11.5418083 C23.4913216,11.4137535 23.3434105,11.2529042 23.2998156,10.9561919 C23.2048411,10.3377809 23.0709425,9.73030142 22.9432718,9.11813702 C22.9074618,8.94791783 22.8498543,8.76676714 22.7548797,8.61997262 C22.6490065,8.45443837 22.5244497,8.45756166 22.3843234,8.34200001 C22.2940197,8.2670411 22.281564,8.16084932 22.3173741,8.05934247 C22.090058,8.19520548 21.8642989,8.35293152 21.6182992,8.4731781 C21.3598439,8.59654796 20.9223383,8.85890413 20.6296299,8.85890413 C19.237708,9.31802743 17.1762935,9.44920552 15.2877016,9.4554521 C13.4006666,9.45232881 11.688011,9.32427401 10.30076,8.86983564 C9.67174835,8.66994522 9.0380658,8.41071234 8.5258261,8 C8.62547152,8.07964384 8.23000378,8.40290412 8.18952283,8.46068494 C7.90771315,8.86983564 7.76758678,9.22901373 7.71932104,9.45857538 C7.38613169,11.0311508 7.44841007,11.0467672 6.4457281,12.7598905 C6.43638634,12.7833152 6.42081675,12.7989316 6.40836107,12.8207947 C3.92656749,16.8998085 2.21079803,21.2661648 1.09290105,25.860521 C0.440534986,28.5403019 0.154054423,31.2684938 0.0512950905,34.0138637 C-0.0935021507,37.8992337 0.041953333,41.7736722 0.79863569,45.6090695 C1.48525487,49.1087135 2.36805095,52.5615081 3.83314992,55.855015 C3.86584607,55.9299739 3.86428911,56.0205493 3.90165614,56.0908233 C4.06825082,56.4156452 4.17256711,56.8123027 4.43257936,57.0371795 C4.8124775,57.3666863 5.28267929,57.6415356 5.76222284,57.8164397 C7.89837139,58.5925768 10.1403932,58.920522 12.4057694,58.9673713 C15.7781438,59.0423302 19.1520753,58.9548781 22.5260067,58.9954809 C25.633698,59.0329603 28.716478,58.8393165 31.7759036,58.3395904 C32.9498511,58.1506315 34.1237986,57.9444945 35.1794172,57.3885493 C35.8971756,57.0106315 36.5199594,56.5155904 36.7083515,55.7097822 C36.8702753,55.0023575 36.9761486,54.2730698 37.0773509,53.553152 C37.4447934,50.970193 37.8340333,48.3856724 38.1500961,45.7933435 C38.4334627,43.454001 38.6483232,41.1021653 38.8553988,38.7534529 C39.1029554,35.9721652 39.0515757,33.1986856 38.5533486,30.4455075" id="Shape"></path>
            </g>
        </g>
    </g>
</svg>