<?xml version="1.0" encoding="UTF-8"?>
<svg width="32px" height="45px" viewBox="0 0 32 45" version="1.1" xmlns="http://www.w3.org/2000/svg" xmlns:xlink="http://www.w3.org/1999/xlink">
    <title>Path</title>
    <g id="Page-1" stroke="none" stroke-width="1" fill="none" fill-rule="evenodd">
        <g id="Desktop-Copy" transform="translate(-776.000000, -1695.000000)" fill="#0067CF" fill-rule="nonzero">
            <g id="Group-2" transform="translate(789.500000, 1714.500000) rotate(-30.000000) translate(-789.500000, -1714.500000) translate(780.000000, 1688.000000)">
                <path d="M17.4147812,33.660271 C18.4254049,29.1309055 17.9310441,22.4540225 17.3928792,18.69394 C16.8531498,14.9415657 15.2934102,13.6558302 14.3406705,11.8706004 C12.9326809,9.19892221 12.7950108,6.54111889 12.7809309,6 C11.9908922,6.09558225 10.7440392,6.16033152 9.3250985,6.16033152 C8.09232534,6.16033152 6.98627125,6.11408205 6.19466819,6.03699958 C6.17276613,6.71224196 6.0006785,9.27908797 4.61459092,11.8706004 C3.68062445,13.6558302 2.19284872,14.8752748 1.65468379,18.6291907 C1.11338999,22.3908149 0.548629703,29.1309055 1.55768895,33.660271 C2.18815542,36.4660727 2.33208326,40.1136148 1.91594409,41.8649284 C1.5029338,43.5946588 0.762957016,45.6404274 1.48259617,48.749934 C2.15060903,51.637443 3.76510383,51.9241898 4.54106257,51.9858558 C5.31232801,52.0475217 7.79351865,50.8219106 9.65206499,50.8219106 C11.4636783,50.8219106 13.1047685,51.879482 14.4345365,51.9858558 C15.7580468,52.0937712 16.8234256,51.637443 17.489874,48.749934 C18.1876111,45.6404274 17.4695364,43.5946588 17.0549617,41.8649284 C16.6403869,40.1136148 16.7905725,36.4660727 17.4147812,33.660271" id="Path"></path>
            </g>
        </g>
    </g>
</svg>