<?xml version="1.0" encoding="UTF-8"?>
<svg width="47px" height="53px" viewBox="0 0 47 53" version="1.1" xmlns="http://www.w3.org/2000/svg" xmlns:xlink="http://www.w3.org/1999/xlink">
    <title>Shape 2</title>
    <g id="Page-1" stroke="none" stroke-width="1" fill="none" fill-rule="evenodd">
        <g id="Desktop-Copy" transform="translate(-266.000000, -1707.000000)" fill="#0067CF" fill-rule="nonzero">
            <path d="M296.13452,1749.20029 C296.552971,1751.1006 297.278287,1753.34342 296.573893,1756.7459 C295.902628,1759.90844 293.489558,1760.29094 293.489558,1760.29094 L283.514724,1760.29094 C283.514724,1760.29094 281.105142,1759.90844 280.432133,1756.7459 C279.706817,1753.34342 280.451312,1751.1006 280.868019,1749.20029 C281.282984,1747.28434 281.140013,1746.3281 280.507105,1743.25074 C280.231625,1741.90679 280.039835,1740.28292 279.917786,1738.56865 L294.533943,1738.56865 C295.445818,1727.79965 294.676914,1725.20389 294.676914,1725.20389 L280.200241,1725.20389 C280.817457,1721.33894 282.679565,1718.8562 283.58621,1716.9698 C285.162376,1713.76205 285.179812,1710.30567 285.179812,1710.30567 C285.179812,1710.30567 284.358601,1709.85885 284.308038,1709.80495 C284.262706,1709.74758 284.271424,1708.32539 284.308038,1708.28714 C284.344653,1708.24541 284.621877,1708.2089 284.621877,1708.2089 L284.621877,1707.57778 C285.329757,1707.70992 286.719364,1707.80032 288.33912,1707.80032 C290.267483,1707.80032 291.878521,1707.67167 292.380662,1707.49607 L292.380662,1708.2089 C292.380662,1708.2089 292.60558,1708.22107 292.691014,1708.28714 C292.77296,1708.3532 292.759012,1709.69889 292.691014,1709.80495 C292.616041,1709.90927 291.836675,1710.30567 291.836675,1710.30567 C291.836675,1710.30567 291.840163,1713.76205 293.39715,1716.9698 C294.356101,1718.92052 296.338515,1721.50237 296.879014,1725.61594 C297.421257,1729.73821 297.513665,1738.29568 296.495434,1743.25422 C295.867757,1746.32462 295.717812,1747.28434 296.13452,1749.20029 M297.818786,1748.83518 C297.482282,1747.28434 297.564228,1746.62366 298.184931,1743.59499 C299.283366,1738.24526 299.117729,1729.43395 298.585947,1725.38644 C298.12042,1721.86922 296.702916,1719.36561 295.667249,1717.53485 C295.395255,1717.05846 295.145928,1716.62207 294.948907,1716.21524 C294.052724,1714.3723 293.733655,1712.39549 293.620324,1711.25496 C293.869652,1711.07762 293.996931,1710.93331 294.112005,1710.76293 C294.445022,1710.27438 294.730964,1708.37233 294.101543,1707.33437 L294.101543,1704.96812 C294.101543,1704.16487 293.547095,1703.46943 292.759012,1703.29383 C292.626502,1703.25905 291.397302,1703 289.31725,1703 C289.060948,1703 288.785468,1703.00348 288.499526,1703.01217 C288.213584,1703.00348 287.938104,1703 287.678315,1703 C285.60175,1703 284.37255,1703.25905 284.24004,1703.29383 C283.4537,1703.46943 282.895765,1704.16661 282.895765,1704.96812 L282.895765,1707.31177 C282.414546,1708.15326 282.44593,1710.27264 282.99166,1710.90376 C283.09976,1711.03415 283.202629,1711.13152 283.392676,1711.2567 C283.274115,1712.38854 282.946328,1714.35665 282.030966,1716.21871 C281.828714,1716.63946 281.574156,1717.08802 281.298676,1717.58005 C280.276957,1719.39864 278.875145,1721.89182 278.414848,1725.38471 C277.879579,1729.42699 277.719173,1738.23657 278.815864,1743.59325 C279.434824,1746.60802 279.518514,1747.27043 279.180266,1748.82823 L279.019859,1749.52368 C278.601408,1751.30228 278.026037,1753.73809 278.740892,1757.0971 C279.466207,1760.50653 281.910661,1761.7705 283.239244,1761.97914 C283.328165,1761.99305 283.417086,1762 283.506007,1762 L293.480841,1762 C293.571505,1762 293.660426,1761.99478 293.749347,1761.97914 C295.079673,1761.7705 297.524127,1760.50653 298.249442,1757.08667 C298.945118,1753.71722 298.373234,1751.27447 297.95827,1749.49412 L297.818786,1748.83518 Z" id="Shape" transform="translate(288.500000, 1732.500000) rotate(-40.000000) translate(-288.500000, -1732.500000) "></path>
        </g>
    </g>
</svg>